<svg width="39" height="39" viewBox="0 0 39 39" fill="none" xmlns="http://www.w3.org/2000/svg">
<path d="M38.8093 20.7923L36.5106 17.1665L37.8741 13.0973C38.0587 12.542 37.8287 11.9321 37.3217 11.6416L33.6021 9.49728L32.9181 5.26012C32.8228 4.68205 32.3355 4.25077 31.7514 4.22656L27.4612 4.05859L24.8872 0.623463C24.5361 0.154349 23.9005 -0.001518 23.3754 0.251198L19.4999 2.09436L15.6229 0.249685C15.0963 -4.72367e-06 14.4638 0.155862 14.1112 0.623463L11.5371 4.05859L7.24699 4.22656C6.66438 4.24926 6.17559 4.68054 6.08177 5.25861L5.39777 9.49577L1.67815 11.6401C1.17121 11.9306 0.939676 12.5405 1.12429 13.0958L2.48775 17.165L0.190607 20.7923C-0.12264 21.2872 -0.0424366 21.9333 0.379766 22.3389L3.47743 25.3094L3.12938 29.5859C3.08247 30.1716 3.4517 30.7058 4.01313 30.8692L8.13679 32.0571L9.81501 36.0083C10.045 36.5455 10.6216 36.8572 11.1936 36.7331L15.4005 35.8706L18.7206 38.5899C18.9461 38.773 19.223 38.8683 19.4999 38.8683C19.7769 38.8683 20.0523 38.773 20.2793 38.5899L23.5994 35.8706L27.8063 36.7331C28.3768 36.8542 28.9564 36.547 29.1849 36.0083L30.8631 32.0571L34.9867 30.8692C35.5482 30.7073 35.9174 30.1716 35.8705 29.5859L35.5224 25.3094L38.6201 22.3389C39.0423 21.9333 39.1225 21.2872 38.8093 20.7923ZM28.3934 14.8739L19.7814 27.7761C19.456 28.2573 18.9521 28.5796 18.4512 28.5796C17.9519 28.5796 17.3935 28.2997 17.0378 27.9425L10.7154 21.5187C10.2841 21.0799 10.2841 20.3686 10.7154 19.9298L12.2756 18.3408C12.7069 17.908 13.4075 17.908 13.8358 18.3408L17.9503 22.5205L24.7359 12.3543C25.0763 11.8413 25.7679 11.7112 26.2703 12.0577L28.0999 13.3153C28.6038 13.6633 28.7339 14.364 28.3934 14.8739Z" fill="white"/>
</svg>
