<svg width="40" height="40" viewBox="0 0 40 40" fill="none" xmlns="http://www.w3.org/2000/svg">
<path d="M24.1383 8.9465C25.9878 10.1061 27.2847 12.0684 27.5208 14.3462C28.2751 14.6986 29.1122 14.9013 29.9998 14.9013C33.24 14.9013 35.8662 12.2751 35.8662 9.03535C35.8662 5.79512 33.24 3.16888 29.9998 3.16888C26.7905 3.16988 24.1872 5.74919 24.1383 8.9465ZM20.295 20.958C23.5353 20.958 26.1615 18.3312 26.1615 15.0915C26.1615 11.8518 23.5348 9.22554 20.295 9.22554C17.0553 9.22554 14.4276 11.8523 14.4276 15.092C14.4276 18.3317 17.0553 20.958 20.295 20.958ZM22.7835 21.3578H17.8056C13.6638 21.3578 10.2943 24.7279 10.2943 28.8696V34.9572L10.3097 35.0526L10.7291 35.1839C14.6816 36.4189 18.1156 36.8307 20.942 36.8307C26.4625 36.8307 29.6623 35.2567 29.8595 35.1564L30.2513 34.9582H30.2933V28.8696C30.2948 24.7279 26.9252 21.3578 22.7835 21.3578ZM32.4892 15.3017H27.5497C27.4963 17.278 26.6527 19.0576 25.3184 20.3375C28.9999 21.4322 31.6935 24.8462 31.6935 28.8786V30.7546C36.5706 30.5758 39.381 29.1936 39.5662 29.1007L39.9581 28.9021H40V22.8125C40 18.6712 36.6305 15.3017 32.4892 15.3017ZM10.0012 14.9023C11.1489 14.9023 12.2166 14.5674 13.1212 13.9968C13.4087 12.1213 14.4141 10.4825 15.8502 9.36631C15.8562 9.25649 15.8667 9.14767 15.8667 9.03685C15.8667 5.79661 13.24 3.17038 10.0012 3.17038C6.76051 3.17038 4.13478 5.79661 4.13478 9.03685C4.13478 12.2756 6.76051 14.9023 10.0012 14.9023ZM15.2697 20.3375C13.9418 19.0641 13.1012 17.2939 13.0398 15.3296C12.8566 15.3161 12.6754 15.3017 12.4887 15.3017H7.51129C3.36952 15.3017 0 18.6712 0 22.8125V28.9011L0.0154749 28.9949L0.434793 29.1272C3.60564 30.1171 6.43554 30.5734 8.89355 30.7171V28.8786C8.89455 24.8462 11.5872 21.4332 15.2697 20.3375Z" fill="white"/>
</svg>
