<svg width="40" height="40" viewBox="0 0 40 40" fill="none" xmlns="http://www.w3.org/2000/svg">
<g clip-path="url(#clip0)">
<path d="M16.7176 19.5289H9.76445V12.2056H4.88223V26.8522H2.44111V19.5289H0V27.9094C0 29.9812 1.15115 31.8438 3.0042 32.7704L4.13761 33.3371C4.59686 33.5667 4.88215 34.0283 4.88215 34.5418V38H19.5288V34.4637L21.9699 29.5815V24.7813C21.97 21.8852 19.6138 19.5289 16.7176 19.5289Z" fill="white"/>
<path d="M37.3115 0H4.1874C1.87844 0 0 1.87844 0 4.1874V12.9003C0 14.5861 1.00191 16.0415 2.44111 16.7048V9.76445H12.2056V17.0878H37.3115C39.6205 17.0878 41.4989 15.2094 41.4989 12.9004V4.1874C41.4989 1.87844 39.6205 0 37.3115 0ZM22.3769 12.2056H14.6467V9.76445H22.3769V12.2056ZM22.3769 7.32334H4.88223V4.88223H22.3769V7.32334ZM28.2971 12.2407L25.1118 8.52453L26.9652 6.93594L28.6621 8.91568L34.257 4.71949L35.7216 6.67238L28.2971 12.2407Z" fill="white"/>
</g>
<defs>
<clipPath id="clip0">
<rect width="40" height="40" fill="white"/>
</clipPath>
</defs>
</svg>
