<svg width="33" height="36" viewBox="0 0 33 36" fill="none" xmlns="http://www.w3.org/2000/svg">
<path d="M32.5513 12.2906L29.999 9.50661C29.3931 8.84577 28.4135 8.84577 27.8141 9.50661L12.3779 26.344L5.19802 18.5053C4.59217 17.8445 3.61251 17.8445 3.01311 18.5053L0.454383 21.2963C-0.151461 21.9571 -0.151461 23.0257 0.454383 23.6866L11.2822 35.5044C11.8881 36.1652 12.8678 36.1652 13.4672 35.5044L32.5448 14.6809C33.1507 14.013 33.1507 12.9444 32.5513 12.2906ZM11.6496 19.7426C12.0492 20.1855 12.7066 20.1855 13.1062 19.7426L26.5121 5.1057C26.9117 4.66279 26.9117 3.95274 26.5121 3.51687L23.5989 0.332178C23.1993 -0.110726 22.5419 -0.110726 22.1423 0.332178L12.3779 10.983L8.8073 7.08119C8.4077 6.63829 7.7503 6.63829 7.3507 7.08119L4.43104 10.2659C4.03144 10.7088 4.03144 11.4188 4.43104 11.8547L11.6496 19.7426Z" fill="white"/>
</svg>
